<svg width="45" height="45" viewBox="0 0 45 45" fill="none" xmlns="http://www.w3.org/2000/svg">
<rect width="45" height="45" rx="22.5" fill="#9DC380"/>
<path d="M13.7917 32.2083C14.6909 33.1075 16.1425 33.1075 17.0417 32.2083L31.125 18.125C32.0242 17.2258 32.0242 15.7742 31.125 14.875C30.2259 13.9758 28.7742 13.9758 27.875 14.875L13.7917 28.9583C12.8925 29.8575 12.8925 31.3092 13.7917 32.2083Z" stroke="white" stroke-width="1.5" stroke-linecap="round" stroke-linejoin="round"/>
<path d="M29.5109 19.7392L26.2609 16.4892" stroke="white" stroke-width="1.5" stroke-linecap="round" stroke-linejoin="round"/>
<path d="M19.2084 12.6433L20.8334 12.1667L20.3567 13.7917L20.8334 15.4167L19.2084 14.94L17.5834 15.4167L18.06 13.7917L17.5834 12.1667L19.2084 12.6433Z" stroke="white" stroke-linecap="round" stroke-linejoin="round"/>
<path d="M14.875 19.1433L16.5 18.6667L16.0233 20.2917L16.5 21.9167L14.875 21.44L13.25 21.9167L13.7267 20.2917L13.25 18.6667L14.875 19.1433Z" stroke="white" stroke-linecap="round" stroke-linejoin="round"/>
<path d="M31.125 24.56L32.75 24.0833L32.2733 25.7083L32.75 27.3333L31.125 26.8566L29.5 27.3333L29.9767 25.7083L29.5 24.0833L31.125 24.56Z" stroke="white" stroke-linecap="round" stroke-linejoin="round"/>
</svg>
